<svg xmlns="http://www.w3.org/2000/svg" width="12.35" height="12.35" viewBox="0 0 12.35 12.35"><defs><style>.a{fill:#e85e22;}</style></defs><path class="a" d="M6.175,0A6.175,6.175,0,1,0,12.35,6.175,6.182,6.182,0,0,0,6.175,0Zm0,11.393a5.218,5.218,0,1,1,5.218-5.218A5.224,5.224,0,0,1,6.175,11.393Z"/><g transform="translate(3.305 3.262)"><path class="a" d="M142.283,137.629H140.37v-1.913a.478.478,0,0,0-.957,0v1.913H137.5a.478.478,0,1,0,0,.957h1.913V140.5a.478.478,0,0,0,.957,0v-1.913h1.913a.478.478,0,0,0,0-.957Z" transform="translate(-137.022 -135.238)"/></g></svg>