<svg xmlns="http://www.w3.org/2000/svg" width="49.153" height="49.153" viewBox="0 0 49.153 49.153"><defs><style>.a{fill:#eaedf3;}</style></defs><path class="a" d="M24.576,0A24.576,24.576,0,1,0,49.153,24.576,24.6,24.6,0,0,0,24.576,0Zm0,45.345A20.769,20.769,0,1,1,45.345,24.576,20.793,20.793,0,0,1,24.576,45.345Z"/><g transform="translate(13.154 12.983)"><path class="a" d="M157.962,144.756h-7.615v-7.615a1.9,1.9,0,1,0-3.807,0v7.615h-7.615a1.9,1.9,0,0,0,0,3.807h7.615v7.615a1.9,1.9,0,0,0,3.807,0v-7.615h7.615a1.9,1.9,0,1,0,0-3.807Z" transform="translate(-137.022 -135.238)"/></g></svg>