<svg xmlns="http://www.w3.org/2000/svg" width="17.465" height="17.465" viewBox="0 0 17.465 17.465"><defs><style>.a{fill:#fff;}</style></defs><g transform="translate(8.732) rotate(45)"><g transform="translate(0 0)"><path class="a" d="M6.175,0A6.175,6.175,0,1,0,12.35,6.175,6.182,6.182,0,0,0,6.175,0Zm0,11.393a5.218,5.218,0,1,1,5.218-5.218A5.224,5.224,0,0,1,6.175,11.393Z"/></g><g transform="translate(3.305 3.262)"><path class="a" d="M5.261,2.391H3.348V.478a.478.478,0,0,0-.957,0V2.391H.478a.478.478,0,1,0,0,.957H2.391V5.261a.478.478,0,0,0,.957,0V3.348H5.261a.478.478,0,0,0,0-.957Z"/></g></g></svg>