<svg xmlns="http://www.w3.org/2000/svg" width="21.131" height="13.207" viewBox="0 0 21.131 13.207"><defs><style>.a{opacity:0.531;}</style></defs><g class="a" transform="translate(0 -63.997)"><g transform="translate(0 64.878)"><g transform="translate(0 0)"><path d="M17.169,85.336A15.51,15.51,0,0,0,11.7,86.7a.441.441,0,1,0,.369.8,14.849,14.849,0,0,1,5.1-1.28c2.245,0,3.082.54,3.082.88,0,1.642-13.783,7.044-16.729,7.044a18.656,18.656,0,0,1-2.442-.113A9.281,9.281,0,0,1,2.4,93.211a.44.44,0,0,0,.165-.636l-1.56-2.341.4-.4,3.237,1.619a.442.442,0,0,0,.394,0L7.68,90.132a.44.44,0,1,0-.394-.787L4.843,90.567,1.518,88.9a.439.439,0,0,0-.508.083l-.88.88a.44.44,0,0,0-.055.556l1.492,2.238C0,93.535,0,93.969,0,94.141c0,.793,1.128.88,3.522.88,2.344,0,17.609-5.155,17.609-7.924C21.131,86.567,20.745,85.336,17.169,85.336Z" transform="translate(0 -85.336)"/></g></g><g transform="translate(1.76 63.997)"><g transform="translate(0 0)"><path d="M54.1,67.024a.44.44,0,0,0-.311-.367l-8.8-2.641a.44.44,0,0,0-.438.11l-1.761,1.761a.44.44,0,0,0,.093.694L49.041,70.1a.44.44,0,0,0,.445,0l4.4-2.641A.442.442,0,0,0,54.1,67.024Zm-4.845,2.186L43.815,66.1l1.168-1.167,7.6,2.28Z" transform="translate(-42.656 -63.997)"/></g></g><g transform="translate(16.729 65.318)"><g transform="translate(0 0)"><path d="M408.432,96a4.349,4.349,0,0,0-2.95,1.006.441.441,0,0,0,.614.632,3.484,3.484,0,0,1,2.336-.757.44.44,0,0,0,0-.88Z" transform="translate(-405.351 -96.002)"/></g></g><g transform="translate(11.006 70.16)"><g transform="translate(0 0)"><path d="M273.259,218.929l-1.321-5.283a.44.44,0,0,0-.854.213l1.234,4.94-1.13.565-3.739-4.57a.441.441,0,1,0-.682.557l3.962,4.843a.44.44,0,0,0,.54.114l1.761-.88A.44.44,0,0,0,273.259,218.929Z" transform="translate(-266.667 -213.312)"/></g></g></g></svg>