<svg xmlns="http://www.w3.org/2000/svg" width="39.896" height="49.87" viewBox="0 0 39.896 49.87"><path d="M68.156,65.87H99.74a4.161,4.161,0,0,0,4.156-4.156V26.805a.831.831,0,0,0-.243-.588l-9.974-9.974A.831.831,0,0,0,93.091,16H68.156A4.161,4.161,0,0,0,64,20.156V61.714A4.161,4.161,0,0,0,68.156,65.87ZM93.922,18.838l7.136,7.136H96.416a2.5,2.5,0,0,1-2.493-2.494Zm-28.26,1.318a2.5,2.5,0,0,1,2.494-2.494h24.1v5.818a4.161,4.161,0,0,0,4.156,4.156h5.818V61.714a2.5,2.5,0,0,1-2.493,2.494H68.156a2.5,2.5,0,0,1-2.494-2.494Z" transform="translate(-64 -16)"/><path d="M192,160.831a.831.831,0,0,0,.831.831h19.948a.831.831,0,0,0,0-1.662H192.831A.831.831,0,0,0,192,160.831Z" transform="translate(-178.701 -145.039)"/><path d="M112.831,209.662h16.623a.831.831,0,0,0,0-1.662H112.831a.831.831,0,1,0,0,1.662Z" transform="translate(-107.013 -188.052)"/><path d="M255.792,256H240.831a.831.831,0,1,0,0,1.662h14.961a.831.831,0,1,0,0-1.662Z" transform="translate(-221.714 -231.065)"/><path d="M112.831,305.662h19.948a.831.831,0,1,0,0-1.662H112.831a.831.831,0,1,0,0,1.662Z" transform="translate(-107.013 -274.078)"/><path d="M112.831,161.662h4.987a.831.831,0,1,0,0-1.662h-4.987a.831.831,0,1,0,0,1.662Z" transform="translate(-107.013 -145.039)"/><path d="M313.143,208h-8.312a.831.831,0,1,0,0,1.662h8.312a.831.831,0,1,0,0-1.662Z" transform="translate(-279.065 -188.052)"/><path d="M112.831,257.662h9.974a.831.831,0,1,0,0-1.662h-9.974a.831.831,0,1,0,0,1.662Z" transform="translate(-107.013 -231.065)"/><path d="M341.818,304h-4.987a.831.831,0,1,0,0,1.662h4.987a.831.831,0,1,0,0-1.662Z" transform="translate(-307.74 -274.078)"/><path d="M249.143,400h-8.312a.831.831,0,1,0,0,1.662h8.312a.831.831,0,1,0,0-1.662Z" transform="translate(-221.714 -360.104)"/><path d="M112.831,401.662h9.974a.831.831,0,1,0,0-1.662h-9.974a.831.831,0,1,0,0,1.662Z" transform="translate(-107.013 -360.104)"/><path d="M112.831,353.662h6.649a.831.831,0,0,0,0-1.662h-6.649a.831.831,0,0,0,0,1.662Z" transform="translate(-107.013 -317.091)"/><path d="M112.831,113.662h9.974a.831.831,0,0,0,0-1.662h-9.974a.831.831,0,0,0,0,1.662Z" transform="translate(-107.013 -102.026)"/><path d="M217.974,352.831a.831.831,0,0,0-.831-.831h-8.312a.831.831,0,0,0,0,1.662h8.312A.831.831,0,0,0,217.974,352.831Z" transform="translate(-193.039 -317.091)"/><path d="M327.481,352h-6.649a.831.831,0,0,0,0,1.662h6.649a.831.831,0,1,0,0-1.662Z" transform="translate(-293.403 -317.091)"/><path d="M356.156,400h-3.325a.831.831,0,1,0,0,1.662h3.325a.831.831,0,1,0,0-1.662Z" transform="translate(-322.078 -360.104)"/></svg>