<svg xmlns="http://www.w3.org/2000/svg" width="12.447" height="12.384" viewBox="0 0 12.447 12.384"><defs><style>.a{fill:#e85e22;}</style></defs><path class="a" d="M11.488,45.738a.31.31,0,0,0-.31.31V48.8a.931.931,0,0,1-.93.93H1.55a.931.931,0,0,1-.93-.93V40.722a.931.931,0,0,1,.93-.93H4.3a.31.31,0,1,0,0-.62H1.55A1.552,1.552,0,0,0,0,40.722V48.8a1.552,1.552,0,0,0,1.55,1.55h8.7A1.552,1.552,0,0,0,11.8,48.8V46.048A.31.31,0,0,0,11.488,45.738Zm0,0" transform="translate(0 -37.966)"/><path class="a" d="M116.511.669a1.4,1.4,0,0,0-1.973,0l-5.53,5.53a.31.31,0,0,0-.08.136L108.2,8.962a.31.31,0,0,0,.381.382l2.626-.727a.31.31,0,0,0,.136-.08l5.53-5.531a1.4,1.4,0,0,0,0-1.973ZM109.683,6.4l4.526-4.526,1.46,1.46-4.526,4.526Zm-.292.585,1.166,1.166-1.613.447Zm7.045-4.419-.329.329-1.46-1.46.329-.329a.775.775,0,0,1,1.1,0l.364.364A.776.776,0,0,1,116.437,2.568Zm0,0" transform="translate(-104.836 -0.261)"/></svg>