<svg xmlns="http://www.w3.org/2000/svg" width="108.568" height="108.568" viewBox="0 0 108.568 108.568"><defs><style>.a{fill:#df1c3a;}.b{fill:#283470;}.c{fill:#fff;}</style></defs><path class="a" d="M86.5,86.5h43.715v43.715H86.5Z" transform="translate(-86.5 -86.5)"/><path class="b" d="M154.8,154.8h86.694v86.694H154.8Z" transform="translate(-132.926 -132.926)"/><path class="c" d="M170.1,307.666v-12.3h3.3v12.3Zm0-13.931v-3.2h3.3v3.2Zm8.967,1.569v1.249h.032c.192-.608.576-.608,1.089-1.057a2.822,2.822,0,0,1,1.954-.64,3.918,3.918,0,0,1,1.954.448,2.788,2.788,0,0,1,.993,1.185,6.336,6.336,0,0,1,.48,1.665,19.371,19.371,0,0,1,.128,1.954v7.558h-3.971v-7.59a3.768,3.768,0,0,0-.224-1.377.88.88,0,0,0-.9-.576,1.2,1.2,0,0,0-1.057.641,3.083,3.083,0,0,0-.384,1.633v7.27h-3.715V295.3h3.619ZM220.6,307.666v-12.3h3.3v12.3Zm0-13.931v-3.2h3.3v3.2Zm8.967,1.569v1.249h.032c.192-.608.576-.608,1.089-1.057a2.822,2.822,0,0,1,1.954-.64,3.918,3.918,0,0,1,1.954.448,2.788,2.788,0,0,1,.993,1.185,6.334,6.334,0,0,1,.48,1.665,19.362,19.362,0,0,1,.128,1.954v7.558h-4v-7.59a3.768,3.768,0,0,0-.224-1.377.88.88,0,0,0-.9-.576,1.2,1.2,0,0,0-1.057.641,3.083,3.083,0,0,0-.384,1.633v7.27h-3.715V295.3Zm-36.958,12.554a6.314,6.314,0,0,1-1.121.128,3.276,3.276,0,0,1-2.658-.993,4.491,4.491,0,0,1-.833-2.946v-5.6h-1.441V295.4H188v-3.139h3.523V295.4h2.082v3.042h-2.082v4.8a2.227,2.227,0,0,0,.288,1.281,1.034,1.034,0,0,0,.865.416,2.706,2.706,0,0,0,1.057-.192v2.818a4.367,4.367,0,0,1-1.121.288Zm5.637-5.284a3.167,3.167,0,0,0,.128.961,2.467,2.467,0,0,0,.384.769,2.332,2.332,0,0,0,.576.544,1.487,1.487,0,0,0,.737.192,1.56,1.56,0,0,0,1.089-.384,4.6,4.6,0,0,0,.929-1.153l2.914.641a4.839,4.839,0,0,1-2.114,3.2,6.6,6.6,0,0,1-2.978.769,5.545,5.545,0,0,1-2.21-.416,5.243,5.243,0,0,1-1.793-1.217,5.7,5.7,0,0,1-1.185-2.018,8.162,8.162,0,0,1-.416-2.754,7.907,7.907,0,0,1,.416-2.69,5.592,5.592,0,0,1,1.153-2.05,5.516,5.516,0,0,1,1.761-1.313,5.055,5.055,0,0,1,2.21-.448,5.3,5.3,0,0,1,2.37.48,4.589,4.589,0,0,1,1.6,1.313,5.339,5.339,0,0,1,.929,2.018,10.55,10.55,0,0,1,.288,2.53v1.025Zm3.075-2.37a3.843,3.843,0,0,0-.32-1.6,1.2,1.2,0,0,0-1.121-.64,1.035,1.035,0,0,0-.7.224,2.784,2.784,0,0,0-.512.544,3.023,3.023,0,0,0-.32.737,3.1,3.1,0,0,0-.1.737Zm-25.172,20.561a3.167,3.167,0,0,0,.128.961,2.468,2.468,0,0,0,.384.769,2.333,2.333,0,0,0,.576.544,1.488,1.488,0,0,0,.737.192,1.56,1.56,0,0,0,1.089-.384,4.6,4.6,0,0,0,.929-1.153l2.914.641a4.839,4.839,0,0,1-2.114,3.2,6.6,6.6,0,0,1-2.978.769,5.545,5.545,0,0,1-2.21-.416,5.243,5.243,0,0,1-1.793-1.217,5.7,5.7,0,0,1-1.185-2.018,8.162,8.162,0,0,1-.416-2.754,7.907,7.907,0,0,1,.416-2.69,5.592,5.592,0,0,1,1.153-2.05,5.516,5.516,0,0,1,1.761-1.313,5.056,5.056,0,0,1,2.21-.448,5.3,5.3,0,0,1,2.37.48,4.589,4.589,0,0,1,1.6,1.313,5.338,5.338,0,0,1,.929,2.018,10.551,10.551,0,0,1,.288,2.53v1.025Zm3.074-2.338a3.843,3.843,0,0,0-.32-1.6,1.2,1.2,0,0,0-1.121-.641,1.035,1.035,0,0,0-.7.224,2.786,2.786,0,0,0-.512.544,3.022,3.022,0,0,0-.32.737,3.1,3.1,0,0,0-.1.737Zm39.968,2.338a3.167,3.167,0,0,0,.128.961,2.469,2.469,0,0,0,.384.769,2.333,2.333,0,0,0,.576.544,1.488,1.488,0,0,0,.737.192,1.56,1.56,0,0,0,1.089-.384,4.6,4.6,0,0,0,.929-1.153l2.914.641a4.839,4.839,0,0,1-2.114,3.2,6.6,6.6,0,0,1-2.978.769,5.545,5.545,0,0,1-2.21-.416,5.243,5.243,0,0,1-1.793-1.217,5.7,5.7,0,0,1-1.185-2.018,8.161,8.161,0,0,1-.416-2.754,7.907,7.907,0,0,1,.416-2.69,5.592,5.592,0,0,1,1.153-2.05,5.516,5.516,0,0,1,1.761-1.313,5.055,5.055,0,0,1,2.21-.448,5.3,5.3,0,0,1,2.37.48,4.589,4.589,0,0,1,1.6,1.313,5.339,5.339,0,0,1,.929,2.018,10.551,10.551,0,0,1,.288,2.53v1.025H219.2Zm3.042-2.338a3.843,3.843,0,0,0-.32-1.6,1.2,1.2,0,0,0-1.121-.641,1.035,1.035,0,0,0-.7.224,2.786,2.786,0,0,0-.512.544,3.023,3.023,0,0,0-.32.737,3.1,3.1,0,0,0-.1.737Zm-10.857-19.216a2.794,2.794,0,0,0-.737.641,3.072,3.072,0,0,0-.384.865,3.571,3.571,0,0,0-.16.993v5.957h-3.619v-12.3h3.491v2.274H210c.416-1.6,2.53-2.658,3.715-2.658h.288a1.626,1.626,0,0,1,.288.064v3.491a2.529,2.529,0,0,0-.416-.1A5.738,5.738,0,0,0,211.381,299.211Zm.993,18.511a2.8,2.8,0,0,0-.737.641,3.071,3.071,0,0,0-.384.865,3.572,3.572,0,0,0-.16.993v5.989h-3.619v-12.3h3.491v2.274H211c.416-1.6,2.53-2.658,3.715-2.658H215a1.623,1.623,0,0,1,.288.064v3.491a2.523,2.523,0,0,0-.416-.1,5.95,5.95,0,0,0-2.5.737Zm2.946-10.056V290.5h3.3v17.166Zm29.88,0-2.786-5.06-.833,1.281v3.779H238V290.5h3.587v9.159l3.042-4.484H248.6l-3.907,4.932,4.227,7.558Zm-12.042,9.768,3.171-.512s-.673-4.548-6.053-3.267a4.037,4.037,0,0,0-2.338,5.6,4.155,4.155,0,0,0,2.626,1.761s2.626.448,2.786,1.249c0,0,.448,2.338-2.306,1.153a2.045,2.045,0,0,1-.608-1.345l-3.074.288a5.343,5.343,0,0,0,.929,2.466c.7.7,1.505,1.409,3.939,1.409a4.118,4.118,0,0,0,4.292-3.619,3.343,3.343,0,0,0-2.594-3.683c-1.761-.576-3.619-.544-3.395-2.05a1.4,1.4,0,0,1,2.306-.641A2.085,2.085,0,0,1,233.159,317.434Zm10.12,0,3.171-.512s-.673-4.548-6.053-3.267a4.037,4.037,0,0,0-2.338,5.6,4.155,4.155,0,0,0,2.626,1.761s2.626.448,2.786,1.249c0,0,.448,2.338-2.306,1.153a2.045,2.045,0,0,1-.608-1.345l-3.074.288a5.343,5.343,0,0,0,.929,2.466c.7.7,1.505,1.409,3.939,1.409a4.118,4.118,0,0,0,4.291-3.619,3.343,3.343,0,0,0-2.594-3.683c-1.761-.576-3.619-.544-3.395-2.05a1.4,1.4,0,0,1,2.306-.641A2.085,2.085,0,0,1,243.279,317.434Zm-36.766,2.082c-.224-4.58-2.754-5.637-2.754-5.637-2.722-1.473-4.772.993-4.772.993v-1.153h-3.267v16.4h3.331v-4.964c.32.641,2.05,1.121,2.05,1.121C204.3,326.785,206.738,324.127,206.514,319.516ZM202.8,322.4c-1.633,3.3-3.715,0-3.715,0v-4.8a2.815,2.815,0,0,1,2.594-1.153C202.318,316.633,204.4,319.1,202.8,322.4Zm-7.974,3.619-4.067-6.405,3.843-5.861h-3.619l-2.018,3.042-1.922-3.042H183.2l3.811,6.021-4.067,6.245h3.651l2.21-3.427,2.178,3.427Z" transform="translate(-143.326 -225.167)"/></svg>