<svg xmlns="http://www.w3.org/2000/svg" width="7.729" height="10.144" viewBox="0 0 7.729 10.144"><defs><style>.a{fill:#fff;}</style></defs><g transform="translate(0)"><path class="a" d="M60.1,3.381h-.483V2.415a2.415,2.415,0,0,0-4.83,0H55.7a1.5,1.5,0,1,1,2.995,0v.966H54.3a.966.966,0,0,0-.966.966v4.83a.966.966,0,0,0,.966.966h5.8a.966.966,0,0,0,.966-.966V4.347A.966.966,0,0,0,60.1,3.381Zm0,5.8H54.3V4.347h5.8Z" transform="translate(-53.333)"/><path class="a" d="M182.3,257.932a.966.966,0,1,0-.966-.966A.966.966,0,0,0,182.3,257.932Z" transform="translate(-178.435 -250.204)"/></g></svg>