<svg xmlns="http://www.w3.org/2000/svg" width="21.794" height="21.793" viewBox="0 0 21.794 21.793"><defs><style>.a{opacity:0.584;}</style></defs><g class="a" transform="translate(0 0)"><path d="M128.6,255.6H117.632a.507.507,0,0,0,0,1.014H128.6a.507.507,0,1,0,0-1.014Zm0,0" transform="translate(-112.365 -245.211)"/><path d="M10.9-.075a10.9,10.9,0,1,0,7.7,3.193A10.9,10.9,0,0,0,10.9-.075Zm0,20.782a9.884,9.884,0,1,1,9.884-9.884A9.9,9.9,0,0,1,10.9,20.707Zm0,0" transform="translate(0 0.075)"/><path d="M11.475,0H.507a.507.507,0,0,0,0,1.014H11.475a.507.507,0,1,0,0-1.014Zm0,0" transform="translate(10.244 16.889) rotate(-90)"/></g></svg>