<svg xmlns="http://www.w3.org/2000/svg" width="16.611" height="15.573" viewBox="0 0 16.611 15.573"><g transform="translate(0 -16)"><path d="M14.47,16H2.141A2.144,2.144,0,0,0,0,18.141V29.432a2.144,2.144,0,0,0,2.141,2.141H12.978a2.383,2.383,0,0,0,1.7-.7l1.235-1.235a2.383,2.383,0,0,0,.7-1.7v-9.8A2.144,2.144,0,0,0,14.47,16ZM2.141,17.038H14.47a1.1,1.1,0,0,1,1.1,1.1v1.492H1.038V18.141A1.1,1.1,0,0,1,2.141,17.038Zm-1.1,12.394v-8.76H15.573V27.42H13.951a1.494,1.494,0,0,0-1.492,1.492v1.622H2.141A1.1,1.1,0,0,1,1.038,29.432Zm14.136-.53L13.94,30.136a1.359,1.359,0,0,1-.443.3v-1.52a.455.455,0,0,1,.454-.454h1.52A1.359,1.359,0,0,1,15.175,28.9Z"/><path d="M121.344,208.519a.519.519,0,0,0-.519-.519h-8.306a.519.519,0,1,0,0,1.038h8.306A.519.519,0,0,0,121.344,208.519Z" transform="translate(-108.366 -185.771)"/><path d="M150.748,288h-6.229a.519.519,0,1,0,0,1.038h6.229a.519.519,0,0,0,0-1.038Z" transform="translate(-139.328 -263.175)"/></g></svg>