<svg xmlns="http://www.w3.org/2000/svg" width="19.007" height="19.007" viewBox="0 0 19.007 19.007"><defs><style>.a{fill:#e85e22;}</style></defs><g transform="translate(0 0)"><path class="a" d="M16.224,2.783A9.505,9.505,0,1,0,19.007,9.5,9.474,9.474,0,0,0,16.224,2.783ZM15.41,15.41a8.358,8.358,0,0,1-11.812,0A8.4,8.4,0,0,1,1.154,9.5a8.35,8.35,0,1,1,16.7,0A8.4,8.4,0,0,1,15.41,15.41Z" transform="translate(0 0)"/></g><g transform="translate(5.68 4.332)"><path class="a" d="M109.5,81.071a2.6,2.6,0,0,1-.181-.226l-.045-.045a.813.813,0,0,0-.226-.158l-3.349-1.923a.022.022,0,0,1-.023-.023L102.3,76.749a1.278,1.278,0,0,0-.95-.136,1.326,1.326,0,0,0-.769.588,1.705,1.705,0,0,0-.136.294c-.023.068-.023.158-.045.249v7.9a1.236,1.236,0,0,0,1.245,1.245,1.025,1.025,0,0,0,.362-.068,1.382,1.382,0,0,0,.317-.158l3.326-1.923.045-.023,3.349-1.923c.023,0,.023-.023.045-.023a1.272,1.272,0,0,0,.543-.747A1.18,1.18,0,0,0,109.5,81.071Zm-.973.7a.049.049,0,0,1-.045.045h-.023l-3.326,1.946-.023.023-3.326,1.923c-.023,0-.023.023-.045.023a.022.022,0,0,0-.023.023h-.023c-.023,0-.045-.023-.068-.023a.083.083,0,0,1-.023-.068V77.812c.023-.023.045-.045.068-.045h.068l3.349,1.923.023.023,3.372,1.946.023.023.023.023Z" transform="translate(-100.4 -76.578)"/></g></svg>