<svg xmlns="http://www.w3.org/2000/svg" width="15.749" height="9.187" viewBox="0 0 15.749 9.187"><defs><style>.a{fill:#e85e22;}</style></defs><g transform="translate(0 0)"><g transform="translate(0 0)"><path class="a" d="M15.691,111.069c-.124-.18-3.1-4.407-7.816-4.407-4.043,0-7.646,4.2-7.8,4.382a.329.329,0,0,0,0,.424c.152.179,3.754,4.382,7.8,4.382s7.646-4.2,7.8-4.382A.328.328,0,0,0,15.691,111.069Zm-7.816,4.124c-3.241,0-6.323-3.091-7.106-3.937.782-.847,3.86-3.937,7.106-3.937,3.792,0,6.469,3.086,7.123,3.92C14.243,112.057,11.143,115.193,7.875,115.193Z" transform="translate(0 -106.662)"/></g><g transform="translate(5.25 1.969)"><path class="a" d="M173.287,170.662a2.625,2.625,0,1,0,2.625,2.625A2.627,2.627,0,0,0,173.287,170.662Zm0,4.594a1.969,1.969,0,1,1,1.969-1.969A1.971,1.971,0,0,1,173.287,175.256Z" transform="translate(-170.662 -170.662)"/></g></g></svg>